<svg width="112" height="24" viewBox="0 0 112 24" fill="none" xmlns="http://www.w3.org/2000/svg">
<path d="M17.9352 10.6968C17.632 11.0018 17.3998 11.37 17.2552 11.775C17.1106 12.18 17.057 12.6119 17.0984 13.04L17.084 13.0256C17.1266 13.5295 17.0586 14.0366 16.8849 14.5115C16.7112 14.9864 16.436 15.4177 16.0785 15.7753C15.7209 16.1328 15.2896 16.4081 14.8146 16.5817C14.3398 16.7554 13.8326 16.8234 13.3288 16.7808L13.3432 16.7952C12.7405 16.7391 12.1351 16.8702 11.6096 17.1708C11.0842 17.4714 10.6642 17.9266 10.407 18.4746C10.1498 19.0226 10.0678 19.6366 10.1722 20.2329C10.2768 20.8291 10.5626 21.3786 10.9909 21.8065C11.4191 22.2343 11.9689 22.5197 12.5652 22.6236C13.1616 22.7276 13.7754 22.645 14.3232 22.3874C14.871 22.1296 15.3258 21.7093 15.6259 21.1835C15.926 20.6578 16.0566 20.0523 16 19.4496L16.0152 19.464C15.9726 18.9602 16.0406 18.453 16.2142 17.9781C16.3879 17.5032 16.6632 17.0719 17.0207 16.7143C17.3783 16.3568 17.8096 16.0815 18.2845 15.9079C18.7594 15.7342 19.2665 15.6662 19.7704 15.7088L19.7552 15.6944C20.2475 15.7386 20.7431 15.6579 21.196 15.4597C21.6488 15.2614 22.0443 14.9521 22.3458 14.5603C22.6472 14.1686 22.845 13.707 22.9205 13.2185C22.9961 12.7299 22.9471 12.2302 22.7782 11.7656C22.6092 11.301 22.3257 10.8866 21.9539 10.5608C21.5822 10.235 21.1342 10.0082 20.6514 9.90168C20.1687 9.79512 19.6669 9.81208 19.1925 9.95104C18.7181 10.0901 18.2865 10.3466 17.9376 10.6968H17.9352Z" fill="white"/>
<path d="M12.0336 14.9088L12.0184 14.8944C12.4467 14.9375 12.8791 14.885 13.2847 14.7405C13.6901 14.596 14.0584 14.3633 14.3629 14.059C14.6673 13.7548 14.9004 13.3866 15.0451 12.9813C15.1899 12.5759 15.2428 12.1435 15.2 11.7152L15.2152 11.7296C15.1727 11.2257 15.2407 10.7186 15.4143 10.2437C15.5879 9.7688 15.8632 9.33752 16.2207 8.97992C16.5783 8.6224 17.0096 8.34712 17.4845 8.17352C17.9595 7.99981 18.4665 7.93186 18.9704 7.9744L18.9552 7.96C19.558 8.01664 20.1635 7.88589 20.6893 7.58568C21.2151 7.28547 21.6355 6.83038 21.8931 6.28248C22.1507 5.73459 22.233 5.12057 22.1288 4.52416C22.0247 3.92775 21.7391 3.37801 21.3109 2.9499C20.8828 2.52179 20.3331 2.23616 19.7367 2.13198C19.1403 2.0278 18.5263 2.11013 17.9783 2.36774C17.4304 2.62535 16.9754 3.04571 16.6751 3.57148C16.3749 4.09724 16.2442 4.70282 16.3008 5.3056L16.2864 5.2904C16.3291 5.79431 16.2612 6.30146 16.0876 6.77644C15.914 7.25142 15.6387 7.68277 15.2812 8.0404C14.9236 8.39792 14.4923 8.6732 14.0173 8.8468C13.5423 9.0204 13.0351 9.08824 12.5312 9.0456L12.5456 9.0608C12.1174 9.01768 11.6848 9.07024 11.2794 9.21472C10.8739 9.35912 10.5056 9.59192 10.2011 9.89616C9.89665 10.2004 9.66361 10.5686 9.51881 10.9739C9.37409 11.3793 9.32121 11.8117 9.36401 12.24L9.34961 12.2256C9.39201 12.7294 9.32393 13.2365 9.15025 13.7114C8.97649 14.1862 8.70129 14.6174 8.34377 14.975C7.98622 15.3325 7.55499 15.6077 7.08014 15.7814C6.60529 15.9551 6.09826 16.0232 5.59441 15.9808L5.60881 15.9952C5.00603 15.9386 4.40045 16.0693 3.87469 16.3695C3.34893 16.6698 2.92857 17.1248 2.67096 17.6727C2.41334 18.2206 2.33101 18.8346 2.43519 19.431C2.53937 20.0274 2.82501 20.5772 3.25311 21.0053C3.68122 21.4334 4.23097 21.719 4.82737 21.8232C5.42378 21.9274 6.03781 21.845 6.5857 21.5874C7.13359 21.3298 7.58869 20.9095 7.88889 20.3838C8.18913 19.8579 8.31985 19.2524 8.26321 18.6496L8.27841 18.664C8.23585 18.1601 8.30385 17.653 8.47753 17.1781C8.65113 16.7032 8.92641 16.2719 9.28393 15.9143C9.64153 15.5568 10.0728 15.2815 10.5477 15.1079C11.0227 14.9342 11.5297 14.8662 12.0336 14.9088Z" fill="white"/>
<path d="M6.67199 13.3032C6.9752 12.9982 7.20735 12.6301 7.35186 12.225C7.49637 11.82 7.54968 11.388 7.50799 10.96L7.52318 10.9744C7.48062 10.4704 7.54859 9.96312 7.72235 9.48808C7.89612 9.01304 8.17151 8.58168 8.52927 8.22408C8.88703 7.8665 9.31847 7.59131 9.79359 7.41775C10.2687 7.24418 10.776 7.17642 11.28 7.2192L11.2648 7.2048C11.8673 7.26126 12.4727 7.13047 12.9982 6.83028C13.5237 6.53009 13.9438 6.07511 14.2013 5.52739C14.4588 4.97966 14.541 4.36586 14.4369 3.76968C14.3327 3.17349 14.0471 2.62396 13.6192 2.196C13.1913 1.76805 12.6417 1.48252 12.0455 1.37834C11.4493 1.27416 10.8355 1.35641 10.2878 1.61387C9.74007 1.87132 9.28511 2.29146 8.98495 2.81698C8.68471 3.3425 8.55391 3.94783 8.61039 4.5504L8.59599 4.536C8.63855 5.03988 8.57055 5.54698 8.39687 6.02189C8.22319 6.4968 7.948 6.92809 7.59043 7.28566C7.23287 7.64323 6.80158 7.91845 6.32667 8.09208C5.85175 8.26576 5.34467 8.33376 4.84079 8.2912L4.85519 8.3056C4.36284 8.26144 3.86731 8.34232 3.41453 8.54064C2.96175 8.73896 2.56635 9.0484 2.26498 9.44024C1.96361 9.832 1.76603 10.2936 1.69052 10.7821C1.61503 11.2706 1.66406 11.7703 1.83307 12.2348C2.00209 12.6994 2.28563 13.1137 2.65742 13.4394C3.0292 13.7653 3.4772 13.9919 3.95991 14.0985C4.4426 14.205 4.94439 14.1879 5.41876 14.049C5.89313 13.9099 6.32473 13.6534 6.67358 13.3032H6.67199Z" fill="white"/>
<path d="M31.4536 5.32401H33.8296V16.8864H31.4536V5.32401Z" fill="white"/>
<path d="M35.1752 12.9272C35.1719 12.0963 35.4153 11.283 35.8745 10.5906C36.3337 9.89809 36.9881 9.35745 37.7548 9.03721C38.5215 8.71689 39.366 8.63137 40.1814 8.79145C40.9967 8.95153 41.7463 9.34993 42.335 9.93633C42.9237 10.5226 43.3251 11.2706 43.4885 12.0853C43.6519 12.9 43.5697 13.7449 43.2525 14.5129C42.9353 15.2808 42.3973 15.9374 41.7067 16.3994C41.0159 16.8614 40.2038 17.108 39.3728 17.108C38.8213 17.1143 38.274 17.0106 37.763 16.8029C37.2519 16.5952 36.7875 16.2878 36.3967 15.8986C36.0058 15.5093 35.6965 15.046 35.4868 14.5358C35.2771 14.0257 35.1711 13.4788 35.1752 12.9272ZM41.1944 12.9272C41.1845 12.569 41.0692 12.2218 40.8631 11.9287C40.6568 11.6358 40.3688 11.41 40.0351 11.2798C39.7012 11.1496 39.3365 11.1206 38.9863 11.1966C38.6362 11.2726 38.3162 11.4501 38.0663 11.707C37.8166 11.9638 37.6479 12.2886 37.5818 12.6407C37.5155 12.9928 37.5545 13.3566 37.6939 13.6867C37.8334 14.0168 38.067 14.2984 38.3655 14.4964C38.6642 14.6944 39.0146 14.8 39.3728 14.8C39.6182 14.8066 39.8623 14.7622 40.0897 14.6697C40.3171 14.5772 40.5228 14.4386 40.6939 14.2627C40.8651 14.0867 40.9979 13.8772 41.084 13.6474C41.1702 13.4175 41.2078 13.1723 41.1944 12.9272Z" fill="white"/>
<path d="M53.04 8.96721V16.4872C53.04 19.148 50.9648 20.2728 48.8584 20.2728C48.1168 20.3283 47.3742 20.1785 46.712 19.8398C46.0499 19.5011 45.4938 18.9866 45.1048 18.3528L47.132 17.1808C47.2955 17.5112 47.5561 17.7838 47.8787 17.9621C48.2014 18.1403 48.5709 18.2158 48.9376 18.1784C49.172 18.2109 49.4107 18.1902 49.6361 18.118C49.8614 18.0458 50.0676 17.9238 50.2394 17.7611C50.4113 17.5984 50.5443 17.3992 50.6288 17.1781C50.7132 16.957 50.7468 16.7198 50.7272 16.484V15.76C50.449 16.1004 50.0949 16.3709 49.6932 16.5497C49.2915 16.7285 48.8536 16.8106 48.4144 16.7896C47.3694 16.7566 46.3783 16.3184 45.6508 15.5675C44.9233 14.8167 44.5165 13.8122 44.5165 12.7668C44.5165 11.7214 44.9233 10.7169 45.6508 9.96609C46.3783 9.21521 47.3694 8.77697 48.4144 8.74401C48.8536 8.72297 49.2915 8.80513 49.6932 8.98393C50.0949 9.16273 50.449 9.43321 50.7272 9.77361V8.96561L53.04 8.96721ZM50.728 12.768C50.744 12.3851 50.645 12.0062 50.4438 11.68C50.2426 11.3538 49.9483 11.0953 49.599 10.9378C49.2496 10.7802 48.8611 10.7308 48.4834 10.7959C48.1058 10.861 47.7562 11.0377 47.4798 11.3032C47.2034 11.5686 47.0127 11.9107 46.9323 12.2854C46.852 12.6602 46.8856 13.0504 47.029 13.4058C47.1722 13.7613 47.4186 14.0658 47.7364 14.28C48.0542 14.4942 48.4288 14.6085 48.812 14.608C49.0617 14.6254 49.3122 14.5904 49.5474 14.5051C49.7827 14.4198 49.9975 14.2862 50.178 14.1129C50.3585 13.9395 50.5007 13.7303 50.5954 13.4986C50.6902 13.267 50.7354 13.0182 50.728 12.768Z" fill="white"/>
<path d="M54.3856 12.9272C54.3823 12.0963 54.6256 11.283 55.0849 10.5906C55.5441 9.89809 56.1985 9.35745 56.9652 9.03721C57.7319 8.71689 58.5764 8.63137 59.3918 8.79145C60.2071 8.95153 60.9567 9.34993 61.5454 9.93633C62.1341 10.5226 62.5355 11.2706 62.6989 12.0853C62.8622 12.9 62.7801 13.7449 62.4629 14.5129C62.1457 15.2808 61.6077 15.9374 60.9171 16.3994C60.2263 16.8614 59.4142 17.108 58.5832 17.108C58.0317 17.1143 57.4843 17.0106 56.9734 16.8029C56.4623 16.5952 55.9978 16.2878 55.607 15.8986C55.2162 15.5093 54.9069 15.046 54.6972 14.5358C54.4874 14.0257 54.3815 13.4788 54.3856 12.9272ZM60.4048 12.9272C60.3949 12.569 60.2796 12.2218 60.0734 11.9287C59.8672 11.6358 59.5792 11.41 59.2455 11.2798C58.9116 11.1496 58.5468 11.1206 58.1967 11.1966C57.8466 11.2726 57.5266 11.4501 57.2767 11.707C57.027 11.9638 56.8583 12.2886 56.7921 12.6407C56.7258 12.9928 56.7649 13.3566 56.9043 13.6867C57.0438 14.0168 57.2774 14.2984 57.5759 14.4964C57.8746 14.6944 58.2249 14.8 58.5832 14.8C58.8286 14.8066 59.0726 14.7622 59.3 14.6697C59.5274 14.5772 59.7332 14.4386 59.9043 14.2627C60.0755 14.0867 60.2083 13.8772 60.2944 13.6474C60.3806 13.4175 60.4182 13.1723 60.4048 12.9272Z" fill="white"/>
<path d="M63.8888 6.84481C63.8888 6.56285 63.9724 6.28722 64.129 6.05279C64.2857 5.81835 64.5084 5.63562 64.7689 5.52773C65.0294 5.41982 65.316 5.39159 65.5926 5.4466C65.869 5.50161 66.1231 5.63738 66.3225 5.83676C66.5218 6.03613 66.6576 6.29014 66.7126 6.56669C66.7676 6.84322 66.7394 7.12986 66.6315 7.39036C66.5236 7.65085 66.3409 7.8735 66.1064 8.03017C65.872 8.18681 65.5964 8.27041 65.3144 8.27041C64.9375 8.26665 64.577 8.11529 64.3105 7.84871C64.044 7.58217 63.8926 7.22173 63.8888 6.84481ZM64.1288 8.96721H66.5056V16.8872H64.1256L64.1288 8.96721Z" fill="white"/>
<path d="M76.7648 12.9272C76.7923 13.4506 76.716 13.9743 76.5403 14.4682C76.3647 14.962 76.0932 15.4162 75.7414 15.8048C75.3896 16.1933 74.9644 16.5085 74.4904 16.7322C74.0163 16.9558 73.5028 17.0835 72.9792 17.108C72.5389 17.132 72.0988 17.0578 71.6907 16.8906C71.2827 16.7234 70.917 16.4676 70.62 16.1416V20.0544H68.244V8.96721H70.62V9.71121C70.9171 9.38545 71.2829 9.12977 71.6909 8.96281C72.099 8.79577 72.539 8.72161 72.9792 8.74561C73.5029 8.77001 74.0166 8.89769 74.4907 9.12137C74.9649 9.34505 75.3901 9.66025 75.7419 10.0489C76.0938 10.4375 76.3653 10.8919 76.5408 11.3859C76.7163 11.8798 76.7925 12.4037 76.7648 12.9272ZM74.3888 12.9272C74.3795 12.5566 74.2611 12.1969 74.0484 11.8931C73.8357 11.5894 73.5382 11.3552 73.1931 11.2198C72.8479 11.0844 72.4704 11.0538 72.1079 11.1318C71.7455 11.2098 71.4141 11.393 71.1552 11.6585C70.8963 11.924 70.7215 12.2598 70.6527 12.6242C70.5838 12.9886 70.6239 13.365 70.7679 13.7067C70.9119 14.0484 71.1536 14.3399 71.4626 14.545C71.7715 14.7499 72.134 14.8593 72.5048 14.8592C72.7594 14.8706 73.0135 14.8279 73.2504 14.7342C73.4873 14.6405 73.7018 14.4977 73.8796 14.3153C74.0575 14.1328 74.1948 13.9149 74.2826 13.6757C74.3703 13.4365 74.4066 13.1814 74.3888 12.9272Z" fill="white"/>
<path d="M84.0968 14.5104C84.0968 16.332 82.5136 17.108 80.8032 17.108C80.112 17.1706 79.4181 17.0245 78.811 16.6884C78.2039 16.3524 77.7116 15.842 77.3976 15.2232L79.456 14.0512C79.5393 14.3372 79.7181 14.5861 79.9627 14.7561C80.2072 14.9262 80.5032 15.0072 80.8 14.9856C81.3696 14.9856 81.6552 14.8112 81.6552 14.4952C81.6552 13.6232 77.7584 14.0832 77.7584 11.3432C77.7584 9.616 79.216 8.7456 80.8632 8.7456C81.4824 8.726 82.0952 8.87288 82.6384 9.17088C83.1816 9.46896 83.6352 9.9072 83.9512 10.44L81.924 11.5328C81.8352 11.3254 81.6872 11.1486 81.4984 11.0247C81.3096 10.9008 81.0888 10.8352 80.8632 10.836C80.4512 10.836 80.1976 10.996 80.1976 11.2792C80.2008 12.1824 84.0968 11.58 84.0968 14.5104Z" fill="white"/>
<path d="M92.776 8.96719V16.8872H90.4V16.1424C90.1256 16.471 89.7776 16.73 89.384 16.898C88.9904 17.066 88.5632 17.1382 88.136 17.1088C86.536 17.1088 85.176 15.9688 85.176 13.8288V8.96719H87.552V13.4808C87.532 13.6694 87.5536 13.8602 87.6152 14.0396C87.676 14.2191 87.776 14.3831 87.9072 14.5202C88.0384 14.6572 88.1976 14.764 88.3744 14.8332C88.5504 14.9024 88.74 14.9323 88.9296 14.9208C89.8008 14.9208 90.4024 14.4144 90.4024 13.2896V8.96959L92.776 8.96719Z" fill="white"/>
<path d="M106.4 12.024V16.8864H104.024V12.2296C104.024 11.4376 103.644 10.9312 102.884 10.9312C102.092 10.9312 101.648 11.4856 101.648 12.42V16.8864H99.2728V12.2296C99.2728 11.4376 98.8928 10.9312 98.132 10.9312C97.34 10.9312 96.8968 11.4856 96.8968 12.42V16.8864H94.5208V8.96639H96.8968V9.69439C97.1432 9.37143 97.4664 9.11527 97.8368 8.94943C98.208 8.78351 98.6144 8.71319 99.0192 8.74479C99.4256 8.72487 99.8304 8.81071 100.194 8.99383C100.558 9.17687 100.867 9.45111 101.094 9.78959C101.357 9.43543 101.706 9.15383 102.107 8.97111C102.509 8.78839 102.95 8.71055 103.39 8.74479C105.209 8.74559 106.4 10.044 106.4 12.024Z" fill="white"/>
<path d="M108.41 8.9184C109.383 8.9184 110.173 8.12896 110.173 7.1552C110.173 6.18141 109.383 5.392 108.41 5.392C107.436 5.392 106.646 6.18141 106.646 7.1552C106.646 8.12896 107.436 8.9184 108.41 8.9184Z" fill="white"/>
</svg>
